<svg width="46" height="43" viewBox="0 0 46 43" fill="none" xmlns="http://www.w3.org/2000/svg">
<g clip-path="url(#clip0_226_4573)">
<path d="M1.16772e-10 37.4555C1.2632e-10 40.5179 2.6556 43 5.9313 43L40.0685 43C43.3448 43 46 40.5176 46 37.4555L46 5.54465C46 2.48207 43.3444 -1.35132e-10 40.0687 -1.24919e-10L5.93148 0C2.65524 0 0 2.48241 0 5.54448L1.16772e-10 37.4554L1.16772e-10 37.4555Z" fill="#563D7C"/>
<path d="M19.0753 19.0204L19.0753 12.9311L24.8093 12.9311C25.3555 12.9311 25.882 12.9736 26.3891 13.0587C26.8962 13.1437 27.3449 13.2956 27.735 13.5144C28.1249 13.7333 28.437 14.0371 28.6711 14.426C28.9051 14.815 29.0222 15.3134 29.0222 15.9209C29.0222 17.0149 28.6711 17.805 27.9689 18.2911C27.2669 18.7774 26.3697 19.0204 25.2774 19.0204L19.0753 19.0204ZM12.951 8.48242L12.951 34.5176L26.4477 34.5176C27.696 34.5176 28.9117 34.3718 30.095 34.08C31.2782 33.7883 32.3314 33.3386 33.2546 32.7309C34.1777 32.1232 34.9124 31.3391 35.4585 30.379C36.0047 29.4187 36.2777 28.2822 36.2777 26.9696C36.2777 25.3408 35.855 23.9492 35.01 22.7945C34.1647 21.6398 32.8839 20.8315 31.1675 20.3696C32.4158 19.8106 33.3586 19.0933 33.9958 18.2182C34.6328 17.3431 34.9514 16.2493 34.9514 14.9365C34.9514 13.721 34.7368 12.7001 34.3077 11.8735C33.8787 11.0471 33.274 10.3847 32.4938 9.8863C31.7138 9.38794 30.7776 9.02933 29.6853 8.81063C28.5931 8.59177 27.3838 8.48242 26.0576 8.48242L12.951 8.48242ZM19.0753 30.0689L19.0753 22.922L25.7455 22.922C27.0717 22.922 28.138 23.2076 28.9443 23.779C29.7503 24.3503 30.1536 25.3043 30.1536 26.6414C30.1536 27.3221 30.0299 27.8811 29.7829 28.3187C29.5358 28.7563 29.2043 29.1028 28.7881 29.3579C28.3721 29.6132 27.8909 29.7955 27.3449 29.905C26.7986 30.0142 26.2267 30.0689 25.6285 30.0689L19.0753 30.0689Z" fill="white"/>
</g>
<defs>
<clipPath id="clip0_226_4573">
<rect width="46" height="43" fill="white"/>
</clipPath>
</defs>
</svg>
