<svg width="46" height="43" viewBox="0 0 46 43" fill="none" xmlns="http://www.w3.org/2000/svg">
<path d="M8.48412 36.5513L5.25549 2.6875L40.7445 2.6875L37.5116 36.546L22.9784 40.3125L8.48412 36.5513Z" fill="#1572B6"/>
<path d="M23 37.4341L34.7444 34.3905L37.5072 5.45691L23 5.45691L23 37.4341Z" fill="#33A9DC"/>
<path d="M23 17.7253L28.8794 17.7253L29.2847 13.4724L23 13.4724L23 9.31885L34.1406 9.31885L34.0343 10.4328L32.9432 21.8789L23 21.8789L23 17.7253Z" fill="white"/>
<path d="M23.0273 28.5117L23.0072 28.5171L18.0593 27.2674L17.7431 23.9551L13.2825 23.9551L13.9049 30.4763L23.0057 32.8386L23.0273 32.8332L23.0273 28.5117Z" fill="#EBEBEB"/>
<path d="M28.5013 21.7029L27.9666 27.2647L23.0115 28.5144L23.0115 32.8359L32.1195 30.4762L32.1871 29.7748L32.959 21.7029L28.5013 21.7029Z" fill="white"/>
<path d="M23.0158 9.31885L23.0158 13.4724L12.2834 13.4724L12.1943 12.5385L11.9916 10.4328L11.8853 9.31885L23.0158 9.31885ZM23 17.7253L23 21.8789L18.1139 21.8789L18.0248 20.945L17.8236 18.8393L17.7172 17.7253L23 17.7253Z" fill="#EBEBEB"/>
</svg>
