<svg width="30" height="42" viewBox="0 0 30 42" fill="none" xmlns="http://www.w3.org/2000/svg">
<g clip-path="url(#clip0_239_1184)">
<path d="M7.5 42C11.64 42 15 38.864 15 35L15 28L7.5 28C3.36 28 0 31.136 0 35C0 38.864 3.36 42 7.5 42Z" fill="#0ACF83"/>
<path d="M0 21C0 17.136 3.36 14 7.5 14L15 14L15 28L7.5 28C3.36 28 0 24.864 0 21Z" fill="#A259FF"/>
<path d="M0 7C0 3.136 3.36 0 7.5 0L15 0L15 14L7.5 14C3.36 14 0 10.864 0 7Z" fill="#F24E1E"/>
<path d="M15 0L22.5 0C26.64 0 30 3.136 30 7C30 10.864 26.64 14 22.5 14L15 14L15 0Z" fill="#FF7262"/>
<path d="M30 21C30 24.864 26.64 28 22.5 28C18.36 28 15 24.864 15 21C15 17.136 18.36 14 22.5 14C26.64 14 30 17.136 30 21Z" fill="#1ABCFE"/>
</g>
<defs>
<clipPath id="clip0_239_1184">
<rect width="30" height="42" fill="white"/>
</clipPath>
</defs>
</svg>
