<svg width="46" height="43" viewBox="0 0 46 43" fill="none" xmlns="http://www.w3.org/2000/svg">
<g clip-path="url(#clip0_226_4593)">
<path fill-rule="evenodd" clip-rule="evenodd" d="M23 0C10.2925 0 0 9.62125 0 21.5C0 31.0138 6.58375 39.0494 15.7262 41.8981C16.8762 42.0863 17.3075 41.4412 17.3075 40.8769C17.3075 40.3662 17.2787 38.6731 17.2787 36.8725C11.5 37.8669 10.005 35.5556 9.545 34.3462C9.28625 33.7281 8.165 31.82 7.1875 31.3094C6.3825 30.9062 5.2325 29.9119 7.15875 29.885C8.97 29.8581 10.2638 31.4437 10.695 32.0887C12.765 35.3406 16.0712 34.4269 17.3937 33.8625C17.595 32.465 18.1987 31.5244 18.86 30.9869C13.7425 30.4494 8.395 28.595 8.395 20.3713C8.395 18.0331 9.28625 16.0981 10.7525 14.5931C10.5225 14.0556 9.7175 11.8519 10.9825 8.89563C10.9825 8.89563 12.9087 8.33125 17.3075 11.0994C19.1475 10.6156 21.1025 10.3737 23.0575 10.3737C25.0125 10.3737 26.9675 10.6156 28.8075 11.0994C33.2062 8.30438 35.1325 8.89563 35.1325 8.89563C36.3975 11.8519 35.5925 14.0556 35.3625 14.5931C36.8288 16.0981 37.72 18.0062 37.72 20.3713C37.72 28.6219 32.3438 30.4494 27.2262 30.9869C28.06 31.6587 28.7787 32.9487 28.7787 34.9644C28.7787 37.84 28.75 40.1512 28.75 40.8769C28.75 41.4412 29.1812 42.1131 30.3312 41.8981C34.8971 40.4571 38.8646 37.714 41.6754 34.0549C44.4861 30.3957 45.9986 26.0048 46 21.5C46 9.62125 35.7075 -1.11323e-10 23 0Z" fill="#FFFEFE"/>
</g>
<defs>
<clipPath id="clip0_226_4593">
<rect width="46" height="43" fill="white"/>
</clipPath>
</defs>
</svg>
