<svg width="45" height="43" viewBox="0 0 45 43" fill="none" xmlns="http://www.w3.org/2000/svg">
<path d="M8.29968 36.5513L5.13983 2.6875L39.8601 2.6875L36.6961 36.546L22.4789 40.3125L8.29968 36.5513Z" fill="#E44F26"/>
<path d="M22.5 37.4341L33.9891 34.3905L36.6919 5.45691L22.5 5.45691L22.5 37.4341Z" fill="#F1662A"/>
<path d="M22.5 18.0156L16.7484 18.0156L16.3519 13.7627L22.5 13.7627L22.5 9.60913L11.6016 9.60913L11.7056 10.7244L12.773 22.1692L22.5 22.1692L22.5 18.0156ZM22.5 28.8019L22.4803 28.8073L17.64 27.5589L17.3306 24.2466L12.967 24.2466L13.5759 30.7665L22.4803 33.1288L22.5 33.1234L22.5 28.8019Z" fill="#EBEBEB"/>
<path d="M22.4845 18.0156L22.4845 22.1692L27.8367 22.1692L27.3333 27.5563L22.4845 28.8059L22.4845 33.1274L31.3959 30.7665L31.4606 30.065L32.4816 19.1309L32.5884 18.0156L22.4845 18.0156ZM22.4845 9.60913L22.4845 13.7627L32.9836 13.7627L33.0708 12.8301L33.2691 10.7244L33.3731 9.60913L22.4845 9.60913Z" fill="white"/>
</svg>
