<svg width="45" height="43" viewBox="0 0 45 43" fill="none" xmlns="http://www.w3.org/2000/svg">
<g clip-path="url(#clip0_239_1177)">
<path d="M34.4531 0L10.5469 0C4.722 0 0 4.51213 0 10.0781L0 32.9219C0 38.4879 4.722 43 10.5469 43L34.4531 43C40.278 43 45 38.4879 45 32.9219L45 10.0781C45 4.51213 40.278 0 34.4531 0Z" fill="#330000"/>
<path d="M21.7499 25.5871L14.7749 25.5871L13.3499 29.7976C13.3124 29.9589 13.1625 30.0664 12.9937 30.0484L9.46863 30.0484C9.26244 30.0484 9.20619 29.9409 9.26244 29.7259L15.3 13.1171C15.3562 12.9381 15.4125 12.7409 15.4874 12.5259C15.5624 12.1496 15.5999 11.7556 15.5999 11.3614C15.5812 11.2718 15.6561 11.1821 15.75 11.1643L20.6061 11.1643C20.7562 11.1643 20.8311 11.2181 20.8499 11.3076L27.6936 29.7618C27.7499 29.9589 27.6936 30.0484 27.5062 30.0484L23.5874 30.0484C23.4563 30.0664 23.3249 29.9768 23.2875 29.8514L21.7499 25.5871ZM15.8625 21.9501L20.6249 21.9501C20.5124 21.5739 20.3625 21.1259 20.1937 20.6601C20.025 20.1764 19.8562 19.6568 19.6875 19.1193C19.4999 18.5639 19.3312 18.0264 19.1436 17.4709C18.9562 16.9156 18.7875 16.3959 18.6374 15.8764C18.4874 15.3748 18.3561 14.9089 18.225 14.4789L18.1874 14.4789C18.0186 15.2493 17.8124 16.0198 17.55 16.7901C17.2687 17.6501 16.9875 18.5459 16.6874 19.4418C16.4453 20.2875 16.1702 21.1242 15.8625 21.9501ZM31.8749 14.2996C31.2562 14.3176 30.6562 14.0846 30.2062 13.6726C29.7751 13.2246 29.5501 12.6334 29.5687 12.0243C29.5501 11.4151 29.7937 10.8418 30.2437 10.4296C30.6937 10.0174 31.2938 9.80261 31.9126 9.80261C32.6438 9.80261 33.2063 10.0176 33.6187 10.4296C34.0343 10.864 34.2563 11.4361 34.2374 12.0243C34.2562 12.6334 34.0312 13.2246 33.5812 13.6726C33.1501 14.1026 32.5125 14.3356 31.8749 14.2996ZM29.7751 29.8514L29.7751 16.0556C29.7751 15.8764 29.8499 15.8046 30.0187 15.8046L33.7312 15.8046C33.8999 15.8046 33.975 15.8943 33.975 16.0556L33.975 29.8514C33.975 30.0484 33.8999 30.1381 33.7312 30.1381L30.0563 30.1381C29.8687 30.1381 29.7751 30.0306 29.7751 29.8514Z" fill="#FF9A00"/>
</g>
<defs>
<clipPath id="clip0_239_1177">
<rect width="45" height="43" fill="white"/>
</clipPath>
</defs>
</svg>
