<svg width="46" height="43" viewBox="0 0 46 43" fill="none" xmlns="http://www.w3.org/2000/svg">
<g clip-path="url(#clip0_239_1181)">
<path d="M38.3633 0L7.63672 0C3.41908 0 0 3.2728 0 7.31L0 35.6212C0 39.6584 3.41908 42.9312 7.63672 42.9312L38.3633 42.9312C42.5809 42.9312 46 39.6584 46 35.6212L46 7.31C46 3.2728 42.5809 0 38.3633 0Z" fill="#49021F"/>
<path d="M16.7054 11.2311L16.7054 30.0468C16.7054 30.2438 16.6128 30.3423 16.4276 30.3423L12.6937 30.3423C12.5288 30.3423 12.4466 30.2438 12.4469 30.0468L12.4469 11.2311C12.4469 11.0736 12.5395 10.9949 12.7246 10.9947L16.4585 10.9947C16.4899 10.9905 16.5219 10.9928 16.5522 11.0016C16.5826 11.0104 16.6106 11.0254 16.6343 11.0456C16.6579 11.0657 16.6767 11.0906 16.6894 11.1185C16.702 11.1463 16.7081 11.1765 16.7073 11.2068L16.7054 11.2311ZM27.9513 30.6358L27.7526 30.6377C26.3322 30.6584 24.925 30.3759 23.633 29.8107C22.4295 29.2775 21.4233 28.4071 20.7478 27.3146C20.0652 26.2294 19.7157 24.8769 19.6991 23.2571L19.6986 23.135C19.687 21.7793 20.049 20.4447 20.748 19.2655C21.4486 18.0967 22.4705 17.134 23.7026 16.4821L23.8028 16.4298C25.1397 15.7209 26.7546 15.3665 28.6476 15.3665L28.6875 15.3666L28.7761 15.3685L28.8763 15.3723L28.9883 15.3778L29.1117 15.3852L29.2467 15.3947L29.5516 15.4186L29.635 15.4255L29.635 9.6067C29.635 9.46898 29.6966 9.40001 29.82 9.39978L33.7083 9.39978C33.7334 9.39633 33.7591 9.39853 33.7832 9.40621C33.8073 9.41389 33.8292 9.42684 33.8471 9.44404C33.8651 9.46123 33.8786 9.48219 33.8867 9.50526C33.8947 9.52833 33.897 9.55287 33.8934 9.57694L33.8934 27.0341C33.8946 27.3988 33.91 27.7634 33.9397 28.127L33.9688 28.5078L33.9945 28.8623L34.0168 29.1903C34.0206 29.2516 34.005 29.3127 33.972 29.3654C33.939 29.4181 33.8901 29.4601 33.8317 29.4858C32.8286 29.8861 31.7839 30.1831 30.7151 30.3717C29.8031 30.533 28.8787 30.6213 27.9515 30.6358M29.6351 26.9749L29.6351 18.911C29.4684 18.8678 29.2981 18.8381 29.1261 18.8225C28.9159 18.8021 28.7047 18.7923 28.4934 18.7929C27.7445 18.7858 27.0045 18.9477 26.3334 19.2655C25.6797 19.5768 25.1215 20.045 24.7133 20.6243C24.2914 21.215 24.0805 21.9928 24.0806 22.9579C24.0657 23.6017 24.1755 24.2426 24.4046 24.8481C24.5911 25.3361 24.8859 25.7795 25.2687 26.1479C25.6352 26.4869 26.0789 26.7396 26.5648 26.8863C27.0781 27.0454 27.6145 27.1252 28.154 27.1228C28.4418 27.1228 28.7093 27.1129 28.9563 27.0931C29.1533 27.0789 29.3486 27.0478 29.5399 27.0002L29.6351 26.9749Z" fill="#FF3366"/>
</g>
<defs>
<clipPath id="clip0_239_1181">
<rect width="46" height="43" fill="white"/>
</clipPath>
</defs>
</svg>
