<svg width="46" height="43" viewBox="0 0 46 43" fill="none" xmlns="http://www.w3.org/2000/svg">
<path d="M2.875 2.6875L43.125 2.6875L43.125 40.3125L2.875 40.3125L2.875 2.6875Z" fill="#F5DE19"/>
<path d="M29.9129 32.082C30.2559 32.7332 30.7887 33.2805 31.45 33.6609C32.1112 34.0413 32.874 34.2392 33.6504 34.232C35.2173 34.232 36.2192 33.4996 36.2192 32.4851C36.2192 31.2757 35.19 30.843 33.465 30.1376L32.5191 29.7586C29.7879 28.6715 27.9766 27.3103 27.9766 24.432C27.9766 21.7808 30.1329 19.7611 33.5153 19.7611C34.6103 19.6872 35.7043 19.9163 36.6608 20.4198C37.6174 20.9233 38.3943 21.6789 38.8944 22.5924L35.9375 24.3594C35.7449 23.9065 35.4096 23.519 34.9759 23.2483C34.5423 22.9776 34.0309 22.8365 33.5096 22.8437C33.2821 22.8224 33.0524 22.8457 32.835 22.9119C32.6177 22.9782 32.4175 23.0861 32.2473 23.2287C32.077 23.3713 31.9404 23.5455 31.8461 23.7402C31.7519 23.9349 31.702 24.1458 31.6997 24.3594C31.6997 25.4197 32.4027 25.8497 34.0256 26.5094L34.9715 26.8884C38.1857 28.177 40.0027 29.4899 40.0027 32.4421C40.0027 35.6254 37.3276 37.3696 33.7352 37.3696C32.3356 37.453 30.94 37.1559 29.7169 36.5143C28.4938 35.8727 27.4955 34.9139 26.8424 33.7536L29.9129 32.082ZM16.5514 32.3884C17.1451 33.3733 17.6856 34.2064 18.9851 34.2064C20.2271 34.2064 21.0119 33.7523 21.0119 31.9852L21.0119 19.9627L24.794 19.9627L24.794 32.0323C24.794 35.6926 22.494 37.3589 19.1461 37.3589C17.9626 37.4194 16.7873 37.1437 15.7747 36.5681C14.762 35.9925 13.9593 35.1439 13.4722 34.1339L16.5514 32.3884Z" fill="black"/>
</svg>
