<svg width="45" height="43" viewBox="0 0 45 43" fill="none" xmlns="http://www.w3.org/2000/svg">
<g clip-path="url(#clip0_226_4608)">
<path d="M34.4531 -1.07412e-10L10.5469 0C4.722 0 0 4.51213 0 10.0781L1.02638e-10 32.9219C1.19991e-10 38.4879 4.722 43 10.5469 43L34.4531 43C40.278 43 45 38.4879 45 32.9219L45 10.0781C45 4.51213 40.278 -1.25572e-10 34.4531 -1.07412e-10Z" fill="#023430"/>
<path d="M30.089 18.0719C28.2368 10.2646 24.3766 8.18612 23.3919 6.7169C22.9856 6.06977 22.6259 5.39695 22.3153 4.70312C22.2632 5.39684 22.1676 5.83355 21.5506 6.35963C20.3119 7.41498 15.0507 11.5117 14.608 20.3827C14.1954 28.6538 20.9712 33.7538 21.8663 34.2811C22.5547 34.6048 23.393 34.288 23.802 33.9908C27.0682 31.8489 31.5309 26.1383 30.0925 18.0719" fill="#10AA50"/>
<path d="M22.5958 29.8768C22.4253 31.924 22.3031 33.1136 21.87 34.2835C21.87 34.2835 22.1542 36.2324 22.3539 38.2969L23.0604 38.2969C23.2291 36.8431 23.4864 35.4 23.831 33.9748C22.9164 33.5448 22.631 31.6733 22.5958 29.8768Z" fill="#B8C4C2"/>
<path d="M23.8298 33.9758C22.9055 33.5678 22.6382 31.6569 22.597 29.8767C22.8255 26.9401 22.8921 23.9941 22.7967 21.0508C22.7482 19.5065 22.8196 6.74693 22.3986 4.87878C22.6864 5.51159 23.0183 6.12527 23.3919 6.71569C24.3767 8.18609 28.238 10.2645 30.089 18.0719C31.531 26.1245 27.0925 31.82 23.8298 33.9758Z" fill="#12924F"/>
</g>
<defs>
<clipPath id="clip0_226_4608">
<rect width="45" height="43" fill="white"/>
</clipPath>
</defs>
</svg>
