<svg width="67" height="43" viewBox="0 0 67 43" fill="none" xmlns="http://www.w3.org/2000/svg">
<g clip-path="url(#clip0_226_4604)">
<path d="M19.9318 28.3747L21.9679 34.5952C22.4254 36.0075 22.6161 36.9934 22.5397 37.5554C23.6533 34.7472 24.4314 31.687 24.874 28.3747L27.3223 28.3747C26.2694 33.7671 24.8812 37.6856 23.1576 40.1301C21.8148 42.0138 20.3437 42.9556 18.7418 42.9556C18.3147 42.9556 17.7882 42.8342 17.1633 42.5929L17.1633 41.2931C17.4686 41.3352 17.8268 41.3577 18.2387 41.3577C18.9859 41.3576 19.5885 41.1628 20.0466 40.7735C20.5952 40.2992 20.8699 39.7662 20.8699 39.1755C20.8699 38.7721 20.6557 37.9442 20.2292 36.6919L17.3923 28.3747L19.9318 28.3747ZM4.34882 24.5514L8.07815 35.2652L8.10118 35.2652L11.8534 24.5514L14.9191 24.5514C15.5903 29.8647 15.9868 34.7261 16.1085 39.1327L13.5239 39.1327C13.4328 35.0136 13.1812 31.1399 12.7691 27.5116L12.7466 27.5116L8.8108 39.1327L6.8425 39.1327L2.9305 27.5116L2.90747 27.5116C2.61741 30.9961 2.43439 34.8698 2.3584 39.1327L0.00146484 39.1327C0.153779 33.9481 0.534956 29.0881 1.145 24.5514L4.34882 24.5514Z" fill="#00758F"/>
<path d="M46.1271 24.3351C50.1387 24.3351 52.1446 26.7483 52.1446 31.5723C52.1446 34.1937 51.5414 36.1738 50.3361 37.5114C50.1188 37.7559 49.8787 37.9671 49.6259 38.1627L52.4648 39.4844L52.462 39.4843L51.4541 41.1232L47.7571 39.0921C47.1441 39.2629 46.4702 39.3484 45.7352 39.3484C43.7655 39.3484 42.2942 38.8078 41.3214 37.7282C40.2536 36.5338 39.72 34.6535 39.72 32.0905C39.72 29.4839 40.3222 27.5113 41.5279 26.1719C42.626 24.9467 44.1594 24.3351 46.1271 24.3351ZM33.8426 24.3562C35.2764 24.3562 36.58 24.7174 37.7543 25.4373L37.1579 26.6887C36.1531 26.2866 35.1624 26.0847 34.1854 26.0847C33.3927 26.0847 32.7819 26.2643 32.3561 26.6258C31.9279 26.9841 31.6631 27.4451 31.6631 28.0072C31.6631 28.8709 32.3166 29.6199 33.5232 30.2527C33.9185 30.4561 34.3124 30.662 34.7049 30.8701L34.7949 30.9178L34.8401 30.9417L34.9302 30.9894L34.9753 31.0133L35.0653 31.0611C35.9786 31.5459 36.8381 32.0087 36.8381 32.0087C38.0446 32.8151 38.646 33.6748 38.646 35.0909C38.646 36.3275 38.1647 37.3426 37.2053 38.137C36.2452 38.9277 34.9554 39.3242 33.3401 39.3242C31.8294 39.3242 30.3653 38.8679 28.9471 37.9628L29.6105 36.7102C30.831 37.2862 31.9354 37.5739 32.9271 37.5739C33.8572 37.5739 34.5853 37.3784 35.112 36.9922C35.6376 36.6033 35.9526 36.0608 35.9526 35.3729C35.9526 34.5071 35.313 33.767 34.1396 33.1461C33.7724 32.9551 33.4062 32.7622 33.0411 32.5674L32.9512 32.5195C32.7861 32.4317 32.6198 32.3427 32.4568 32.2556L32.3685 32.2083C31.5762 31.7839 30.8912 31.4132 30.8912 31.4132C29.7182 30.6053 29.13 29.7385 29.13 28.3103C29.13 27.1291 29.5686 26.1744 30.4446 25.448C31.3227 24.7201 32.4554 24.3562 33.8426 24.3562ZM56.8591 24.5513L56.8591 37.339L61.7319 37.339L61.7319 39.1326L54.3878 39.1326L54.3878 24.5514L56.8591 24.5513ZM64.4395 37.3445L64.4395 37.6476L63.9038 37.6476L63.9038 39.131L63.4942 39.131L63.4942 37.6476L62.9377 37.6476L62.9377 37.3445L64.4395 37.3445ZM65.4287 37.3445L65.9431 38.5623L66.4156 37.3445L66.9962 37.3445L66.9962 39.131L66.6102 39.131L66.6102 37.7714L66.0724 39.131L65.7941 39.131L65.2554 37.7714L65.2347 37.7714L65.2347 39.131L64.8695 39.131L64.8695 37.3445L65.4287 37.3445ZM45.8749 26.1283C43.5109 26.1283 42.3282 27.9653 42.3282 31.637C42.3282 33.7401 42.6416 35.2652 43.2672 36.2158C43.8466 37.0955 44.7541 37.5345 45.9897 37.5345C48.3538 37.5345 49.5363 35.6831 49.5363 31.9822C49.5363 29.9084 49.2229 28.3964 48.5981 27.4454C48.018 26.5676 47.1109 26.1283 45.875 26.1283" fill="#F29111"/>
<path d="M39.6787 0.903501C40.4629 -0.910877 43.2049 0.463152 44.269 1.09694C44.5298 1.25551 44.8289 1.59052 45.128 1.71434C45.5944 1.73159 46.0605 1.76597 46.5278 1.78432C47.4043 1.97825 48.2253 2.1367 48.9159 2.50707C52.1255 4.28682 54.2148 6.10046 56.1377 9.09617C56.5486 9.7307 56.7539 10.4173 57.0896 11.104C57.5554 12.1275 58.0788 13.2019 58.6195 14.1697C58.8616 14.6285 59.0488 15.1387 59.385 15.5262C59.5162 15.7034 59.889 15.7556 60.1119 15.8615C60.728 16.1617 61.4743 16.3897 62.0538 16.742C63.1358 17.3773 64.182 18.1343 65.133 18.9093C65.4875 19.2084 65.7291 19.6319 66.0668 19.9483L66.0668 20.108C65.767 20.1946 65.4683 20.2833 65.1693 20.3544C64.5162 20.5124 63.9377 20.4766 63.3041 20.6347C62.9126 20.7417 62.4264 20.8827 62.0158 20.9186L62.0538 20.9546C62.2953 21.6045 63.6023 22.1331 64.2 22.5218C64.926 23.0151 65.5987 23.6134 66.1402 24.3006C66.3272 24.4759 66.5142 24.6354 66.7003 24.8103C66.8303 24.9874 66.867 25.2166 66.9986 25.3746L66.9986 25.428C66.8528 25.3796 66.748 25.2872 66.6487 25.1906L66.5894 25.1323C66.5301 25.0744 66.4703 25.0175 66.4022 24.9706C65.9902 24.7057 65.5812 24.3888 65.1693 24.1425C64.4611 23.7194 63.6397 23.4738 62.9126 23.0491C62.5014 22.8026 62.1095 22.5218 61.7176 22.2396C61.3623 21.9924 60.9711 21.5175 60.7478 21.1651C60.6163 20.9705 60.5983 20.7417 60.4481 20.6008C60.4749 20.3656 60.7037 20.2958 60.9347 20.2383L60.9878 20.2252C61.0675 20.2057 61.1455 20.1862 61.2136 20.1605C62.1837 19.7726 63.3403 19.6319 64.8339 19.6671C64.7776 19.314 63.8444 18.8741 63.5464 18.6626C62.9484 18.2568 62.3152 17.8333 61.6808 17.4639C61.3447 17.2705 60.7654 17.1293 60.393 16.9712C59.889 16.7773 58.7691 16.5835 58.4898 16.2141C58.0155 15.6318 57.6747 14.9373 57.3439 14.2357L57.2539 14.0443L57.1636 13.8529C56.7726 13.0081 56.2869 12.1272 55.895 11.2622C55.6901 10.8402 55.596 10.4698 55.3716 10.0651C54.0098 7.58144 51.9942 5.50204 49.5505 4.03967C48.7475 3.56383 47.8521 3.12348 46.8636 2.82421C46.3034 2.6649 45.6311 2.75299 45.0343 2.63077L44.6414 2.63077C44.3062 2.54181 44.0263 2.20718 43.7647 2.03074C43.187 1.66136 42.6084 1.41334 41.9175 1.1498C41.6754 1.04408 40.9841 0.797911 40.7428 0.991719C40.5933 1.02708 40.5176 1.08018 40.4808 1.22138C40.3322 1.43207 40.4629 1.74946 40.5554 1.94376C40.8357 2.50682 41.2272 2.84146 41.5826 3.31729C41.8987 3.73928 42.2914 4.21512 42.5156 4.67395C42.9992 5.66024 43.2244 6.75298 43.6726 7.73915C43.8388 8.11 44.1017 8.532 44.3436 8.86651C44.5487 9.13202 44.9215 9.32398 45.0343 9.6601C45.2591 10.0125 44.6977 11.1752 44.5678 11.5445C44.0816 12.9893 44.1759 14.9978 44.7357 16.2502L44.7655 16.3162L44.7953 16.3831C44.9997 16.8418 45.2185 17.3358 45.7619 17.464C45.7994 17.4291 45.7619 17.4474 45.8361 17.4291C45.9676 16.4596 46.0047 15.5261 46.3595 14.7676C46.5646 14.2934 46.974 13.9581 47.2547 13.571C47.4418 13.6765 47.4418 13.9945 47.5533 14.2049C47.7962 14.7507 48.057 15.3492 48.3564 15.8966C48.9709 17.0239 49.6623 18.1169 50.4457 19.1031C50.7081 19.4554 51.0804 19.8431 51.4161 20.1604C51.5657 20.2832 51.7332 20.3542 51.8456 20.5122L51.8822 20.5122L51.8822 20.5655C51.3224 20.3712 50.9676 19.8258 50.5211 19.5075C49.6805 18.909 48.6738 18.0104 48.0944 17.148C47.8521 16.653 47.5901 16.1785 47.3289 15.6859L47.3289 15.6503C47.2173 15.791 47.2547 15.9307 47.1988 16.1436C46.9565 17.0239 47.1431 18.0282 46.3034 18.3449C45.3516 18.7157 44.6416 17.7464 44.3436 17.306C43.3915 15.844 43.1307 13.3776 43.8021 11.3866C43.9513 10.9459 43.9716 10.4173 44.232 10.0655C44.1757 9.74733 43.9153 9.66035 43.7647 9.46543C43.5035 9.13227 43.2799 8.74416 43.0754 8.37417C42.6826 7.65142 42.4031 6.78785 42.1048 6.01274C41.9737 5.69621 41.9362 5.37846 41.8054 5.07881C41.5825 4.62146 41.1715 4.16263 40.8544 3.75801C40.4251 3.17646 39.1746 2.04935 39.6787 0.903501ZM45.799 4.35521C45.8488 4.40227 45.909 4.44342 45.9713 4.48396L46.0464 4.5325C46.1465 4.5978 46.2435 4.66655 46.3029 4.76019C46.3971 4.88414 46.4146 5.00649 46.5274 5.13068C46.5274 5.55415 46.3971 5.83569 46.134 6.01114C46.134 6.01114 46.116 6.02962 46.0976 6.04687C45.9484 5.7646 45.8177 5.4838 45.6675 5.20178C45.4824 4.9556 45.2209 4.76032 45.0701 4.47903L45.0339 4.47903L45.0339 4.44367C45.2591 4.39131 45.4824 4.35521 45.799 4.35521Z" fill="#00758F"/>
</g>
<defs>
<clipPath id="clip0_226_4604">
<rect width="67" height="43" fill="white"/>
</clipPath>
</defs>
</svg>
