<svg width="42" height="43" viewBox="0 0 42 43" fill="none" xmlns="http://www.w3.org/2000/svg">
<path d="M21 43C20.3471 43 19.74 42.8402 19.173 42.5638L13.3904 39.4442C12.5217 39.0098 12.957 38.8519 13.2185 38.7729C14.3907 38.4175 14.6084 38.3385 15.8264 37.7049C15.9562 37.6259 16.1318 37.6654 16.2616 37.7444L20.6965 40.155C20.8683 40.234 21.0878 40.234 21.2176 40.155L38.5655 31.0295C38.7374 30.9506 38.8252 30.7926 38.8252 30.5952L38.8252 12.3837C38.8252 12.1863 38.7393 12.0283 38.5655 11.9493L21.2176 2.86513C21.0439 2.78615 20.8263 2.78615 20.6965 2.86513L3.34855 11.9493C3.17482 12.0283 3.087 12.2257 3.087 12.3837L3.087 30.5952C3.087 30.7531 3.17482 30.9506 3.34855 31.0295L8.08691 33.5191C10.6527 34.7038 12.2602 33.3217 12.2602 31.9396L12.2602 13.965C12.2602 13.7281 12.4778 13.4912 12.7833 13.4912L14.9997 13.4912C15.2613 13.4912 15.5209 13.6886 15.5209 13.965L15.5209 31.9378C15.5209 35.0592 13.6519 36.8757 10.3912 36.8757C9.39082 36.8757 8.60809 36.8757 6.39164 35.8884L1.827 33.5191C1.27735 33.2343 0.818354 32.8169 0.497237 32.31C0.176121 31.803 0.00448712 31.2247 0 30.6347L0 12.4232C0 11.2385 0.694909 10.1328 1.827 9.54051L19.1749 0.413238C19.7399 0.141628 20.3654 0 21 0C21.6346 0 22.2601 0.141628 22.8251 0.413238L40.1749 9.53872C41.3051 10.131 42 11.2367 42 12.4214L42 30.6329C42 31.8175 41.3051 32.9232 40.1749 33.5173L22.827 42.641C22.2504 42.876 21.6285 42.997 21 42.9964M26.3474 30.4731C18.7396 30.4731 17.1742 27.314 17.1742 24.627C17.1742 24.3901 17.3918 24.1531 17.6954 24.1531L19.9557 24.1531C20.2173 24.1531 20.433 24.3111 20.433 24.548C20.7824 26.6409 21.7827 27.6676 26.3913 27.6676C30.0434 27.6676 31.6088 26.9173 31.6088 25.1403C31.6088 24.1136 31.1735 23.3633 25.4787 22.85C20.7385 22.4138 17.7832 21.4679 17.7832 18.0306C17.7832 14.8302 20.7385 12.9329 25.6964 12.9329C31.2614 12.9329 34.0009 14.6722 34.3484 18.465C34.3441 18.5933 34.2981 18.7173 34.2166 18.8204C34.1307 18.8993 34.0009 18.9783 33.8692 18.9783L31.6088 18.9783C31.499 18.9758 31.3931 18.9398 31.307 18.8757C31.2209 18.8116 31.1593 18.7228 31.1315 18.6229C30.6085 16.451 29.2606 15.7384 25.6964 15.7384C21.6949 15.7384 21.2176 17.0021 21.2176 17.9516C21.2176 19.0968 21.7827 19.4522 27.174 20.084C32.5214 20.7158 35.0433 21.6241 35.0433 25.0201C34.9994 28.4987 31.8704 30.4731 26.3474 30.4731Z" fill="black"/>
</svg>
