<svg width="45" height="43" viewBox="0 0 45 43" fill="none" xmlns="http://www.w3.org/2000/svg">
<g clip-path="url(#clip0_239_1173)">
<path d="M34.4531 0L10.5469 0C4.722 0 0 4.51213 0 10.0781L0 32.9219C0 38.4879 4.722 43 10.5469 43L34.4531 43C40.278 43 45 38.4879 45 32.9219L45 10.0781C45 4.51213 40.278 0 34.4531 0Z" fill="#001E36"/>
<path d="M10.125 29.9052L10.125 11.469C10.125 11.3435 10.1813 11.2719 10.3126 11.2719C10.6313 11.2719 10.9313 11.2719 11.3625 11.254C11.8125 11.236 12.2813 11.236 12.7876 11.2182C13.2938 11.2002 13.8375 11.2002 14.4188 11.1822C14.9999 11.1644 15.5624 11.1644 16.1249 11.1644C17.6625 11.1644 18.9374 11.3435 19.9876 11.7197C20.9288 12.0252 21.787 12.5271 22.5 13.189C23.104 13.7683 23.5708 14.4648 23.8688 15.2315C24.1501 15.984 24.3 16.7544 24.3 17.5607C24.3 19.1015 23.925 20.3736 23.175 21.3769C22.4249 22.3802 21.375 23.1327 20.1563 23.5627C18.8812 24.0107 17.4749 24.1719 15.9376 24.1719C15.4876 24.1719 15.1875 24.1719 14.9999 24.154C14.8124 24.136 14.5499 24.136 14.1938 24.136L14.1938 29.8872C14.2124 30.0127 14.1187 30.1202 13.9874 30.1382L10.35 30.1382C10.2001 30.1382 10.125 30.0665 10.125 29.9052ZM14.2124 14.7297L14.2124 20.7497C14.4751 20.7677 14.7187 20.7857 14.9437 20.7857L15.9376 20.7857C16.6688 20.7857 17.4001 20.6782 18.0937 20.4632C18.6938 20.3019 19.2187 19.9615 19.6313 19.5135C20.025 19.0657 20.2126 18.4565 20.2126 17.6682C20.2302 17.1083 20.0805 16.5551 19.7812 16.0735C19.4625 15.6077 19.0125 15.2494 18.4688 15.0522C17.775 14.7835 17.0249 14.676 16.2563 14.694C15.7688 14.694 15.3374 14.694 14.9813 14.7119C14.6062 14.694 14.3437 14.7119 14.2124 14.7297ZM36 19.6569C35.4375 19.3702 34.8376 19.1732 34.2 19.0477C33.5062 18.9044 32.8126 18.8147 32.0999 18.8147C31.725 18.7969 31.3312 18.8507 30.9749 18.9402C30.7313 18.994 30.5249 19.1194 30.3938 19.2985C30.2999 19.4419 30.2437 19.621 30.2437 19.7822C30.2437 19.9435 30.3187 20.1047 30.4312 20.2482C30.6 20.4452 30.825 20.6065 31.0688 20.7319C31.5035 20.947 31.9477 21.1443 32.4 21.3232C33.4125 21.6457 34.3876 22.0935 35.2876 22.631C35.9063 23.0072 36.4126 23.509 36.7687 24.1182C37.0688 24.6915 37.2187 25.3185 37.2001 25.9635C37.2187 26.8057 36.9563 27.6477 36.4688 28.3465C35.9458 29.0617 35.216 29.6158 34.3688 29.941C33.4499 30.3172 32.3249 30.5144 30.9749 30.5144C30.1126 30.5144 29.2688 30.4427 28.4251 30.2815C27.7638 30.1723 27.1206 29.9796 26.5126 29.7082C26.3813 29.6365 26.2876 29.511 26.3062 29.3677L26.3062 26.2502C26.3062 26.1965 26.325 26.1247 26.3813 26.089C26.4375 26.0532 26.4937 26.071 26.55 26.1069C27.2812 26.519 28.0499 26.8057 28.8751 26.9847C29.5875 27.164 30.3376 27.2535 31.0874 27.2535C31.8001 27.2535 32.3063 27.164 32.6438 27.0027C32.9437 26.8772 33.1501 26.5727 33.1501 26.2502C33.1501 25.9994 32.9999 25.7665 32.7001 25.5335C32.4 25.3007 31.7812 25.0319 30.8624 24.6915C29.92 24.374 29.025 23.9404 28.2001 23.4015C27.6124 23.0014 27.1256 22.4811 26.775 21.8785C26.4749 21.3052 26.325 20.6782 26.3438 20.051C26.3438 19.2807 26.5688 18.546 26.9812 17.8832C27.45 17.1665 28.1438 16.5932 28.9499 16.2347C29.8313 15.8047 30.9375 15.6077 32.2687 15.6077C33.0376 15.6077 33.8251 15.6615 34.5938 15.769C35.1563 15.8407 35.6999 15.984 36.2062 16.181C36.2813 16.199 36.3563 16.2707 36.3938 16.3422C36.4126 16.414 36.4312 16.4857 36.4312 16.5572L36.4312 19.4777C36.4312 19.5494 36.3937 19.621 36.3375 19.6569C36.1687 19.6927 36.0751 19.6927 36 19.6569Z" fill="#31A8FF"/>
</g>
<defs>
<clipPath id="clip0_239_1173">
<rect width="45" height="43" fill="white"/>
</clipPath>
</defs>
</svg>
