<svg width="71" height="35" viewBox="0 0 71 35" fill="none" xmlns="http://www.w3.org/2000/svg">
<g clip-path="url(#clip0_226_4599)">
<path d="M35.5004 34.8963C55.1062 34.8963 70.9997 27.0845 70.9997 17.4481C70.9997 7.8118 55.1062 -1.71797e-10 35.5004 -1.10674e-10C15.8947 0 0.00112915 7.8118 0.00112915 17.4481C0.00112915 27.0845 15.8947 34.8963 35.5004 34.8963Z" fill="url(#paint0_radial_226_4599)"/>
<path d="M35.5 33.6C54.3399 33.6 69.6126 26.3685 69.6126 17.4481C69.6126 8.5277 54.3399 1.29626 35.5 1.29626C16.6601 1.29626 1.38739 8.5277 1.38739 17.4481C1.38739 26.3685 16.6601 33.6 35.5 33.6Z" fill="#6181B6"/>
<path d="M42.4057 22.6852L44.0975 14.5445C44.4857 12.7037 44.1529 11.3297 43.1545 10.4741C42.1838 9.64447 40.5198 9.22965 38.0792 9.22965L35.1394 9.22965L35.9715 5.18521C35.9992 5.02965 35.9715 4.8741 35.8605 4.74447C35.7496 4.61484 35.6109 4.56299 35.4445 4.56299L31.3954 4.56299C31.118 4.56299 30.8962 4.74447 30.8407 4.9778L29.038 13.6111C28.8716 12.626 28.4833 11.7963 27.8177 11.1222C26.6252 9.85188 24.767 9.20373 22.2432 9.20373L14.45 9.20373C14.1727 9.20373 13.9508 9.38521 13.8953 9.61854L10.2622 27.1445C10.2345 27.3 10.2622 27.4556 10.3731 27.5852C10.4841 27.7148 10.6227 27.7667 10.7891 27.7667L14.866 27.7667C15.1434 27.7667 15.3652 27.5852 15.4207 27.3519L16.3082 23.126L19.3312 23.126C20.912 23.126 22.2709 22.9704 23.2971 22.6593C24.3787 22.3223 25.3494 21.7778 26.2092 21.026C26.9025 20.4297 27.4849 19.7556 27.9286 19.0297L27.2076 22.5297C27.1798 22.6852 27.2076 22.8408 27.3185 22.9704C27.4294 23.1 27.5681 23.1519 27.7345 23.1519L31.7837 23.1519C32.061 23.1519 32.2829 22.9704 32.3383 22.7371L34.3352 13.1445L37.1085 13.1445C38.3011 13.1445 38.6339 13.3519 38.7448 13.4556C38.828 13.5334 38.9944 13.8445 38.8003 14.8037L37.1918 22.5556C37.164 22.7111 37.1918 22.8667 37.3027 22.9963C37.4136 23.126 37.5523 23.1778 37.7187 23.1778L41.8788 23.1778C42.1284 23.1 42.3502 22.9185 42.4057 22.6852ZM23.6576 15.9445C23.408 17.163 22.9366 18.0445 22.2432 18.5371C21.5499 19.0297 20.4128 19.2889 18.9152 19.2889L17.1125 19.2889L18.4159 13.0148L20.7456 13.0148C22.4651 13.0148 23.1584 13.3519 23.4358 13.6371C23.7963 14.0519 23.8795 14.8556 23.6576 15.9445ZM59.7116 11.1222C58.5191 9.85188 56.6609 9.20373 54.1371 9.20373L46.2884 9.20373C46.0111 9.20373 45.7892 9.38521 45.7338 9.61854L42.1006 27.1185C42.0729 27.2741 42.1006 27.4297 42.2116 27.5593C42.3225 27.6889 42.4612 27.7408 42.6276 27.7408L46.7045 27.7408C46.9818 27.7408 47.2037 27.5593 47.2591 27.326L48.1466 23.1L51.1696 23.1C52.7504 23.1 54.1094 22.9445 55.1355 22.6334C56.2172 22.2963 57.1878 21.7519 58.0476 21C58.7687 20.3778 59.3788 19.6778 59.8226 18.926C60.2663 18.1741 60.5991 17.3445 60.7932 16.4371C61.2647 14.1815 60.9042 12.4185 59.7116 11.1222ZM55.4683 15.9445C55.2187 17.163 54.7473 18.0445 54.0539 18.5371C53.3606 19.0297 52.2235 19.2889 50.7259 19.2889L48.9232 19.2889L50.2267 13.0148L52.5563 13.0148C54.2758 13.0148 54.9691 13.3519 55.2465 13.6371C55.6348 14.0519 55.718 14.8556 55.4683 15.9445Z" fill="white"/>
<path d="M20.7456 12.4962C22.2987 12.4962 23.3249 12.7555 23.8518 13.2999C24.3787 13.8444 24.4897 14.7518 24.2123 16.0481C23.935 17.3962 23.3803 18.3814 22.576 18.9518C21.7718 19.5222 20.5515 19.8073 18.9152 19.8073L16.4469 19.8073L17.9722 12.4962L20.7456 12.4962ZM10.8169 27.2222L14.8938 27.2222L15.8645 22.5814L19.3589 22.5814C20.912 22.5814 22.16 22.4259 23.1585 22.1148C24.1569 21.8036 25.0444 21.3111 25.8764 20.5851C26.5697 19.9888 27.1244 19.3407 27.5404 18.6407C27.9564 17.9407 28.2615 17.1629 28.4279 16.3073C28.8716 14.2333 28.5388 12.6259 27.4572 11.4592C26.3756 10.2925 24.6561 9.72216 22.2987 9.72216L14.45 9.72216L10.8169 27.2222ZM31.4231 5.08142L35.4723 5.08142L34.5016 9.72216L38.107 9.72216C40.3812 9.72216 41.9343 10.0851 42.794 10.837C43.6538 11.5888 43.9034 12.7814 43.5706 14.4407L41.8788 22.5814L37.7742 22.5814L39.3827 14.8296C39.5769 13.9481 39.4937 13.3518 39.1886 13.0407C38.8835 12.7296 38.1902 12.5481 37.164 12.5481L33.9192 12.5481L31.8391 22.5814L27.79 22.5814L31.4231 5.08142ZM52.5563 12.4962C54.1094 12.4962 55.1356 12.7555 55.6625 13.2999C56.1894 13.8444 56.3004 14.7518 56.023 16.0481C55.7457 17.3962 55.191 18.3814 54.3868 18.9518C53.5825 19.5222 52.3622 19.8073 50.7259 19.8073L48.2576 19.8073L49.7829 12.4962L52.5563 12.4962ZM42.6276 27.2222L46.7045 27.2222L47.6752 22.5814L51.1696 22.5814C52.7227 22.5814 53.9707 22.4259 54.9692 22.1148C55.9676 21.8036 56.8551 21.3111 57.6871 20.5851C58.3804 19.9888 58.9351 19.3407 59.3511 18.6407C59.7671 17.9407 60.0722 17.1629 60.2386 16.3073C60.6823 14.2333 60.3495 12.6259 59.2679 11.4592C58.1863 10.2925 56.4668 9.72216 54.1094 9.72216L46.2607 9.72216L42.6276 27.2222Z" fill="#000004"/>
</g>
<defs>
<radialGradient id="paint0_radial_226_4599" cx="0" cy="0" r="1" gradientUnits="userSpaceOnUse" gradientTransform="translate(21.315 6.13602) scale(46.6193 43.5803)">
<stop stop-color="white"/>
<stop offset="0.5" stop-color="#4C6B97"/>
<stop offset="1" stop-color="#231F20"/>
</radialGradient>
<clipPath id="clip0_226_4599">
<rect width="71" height="35" fill="white"/>
</clipPath>
</defs>
</svg>
