<svg width="50" height="43" viewBox="0 0 50 43" fill="none" xmlns="http://www.w3.org/2000/svg">
<g clip-path="url(#clip0_226_4571)">
<path d="M41.109 13.9229C40.5769 13.7466 40.0404 13.5833 39.4998 13.4331C39.5906 13.0748 39.6742 12.7208 39.7484 12.373C40.9666 6.66214 40.1702 2.06133 37.4499 0.54652C34.8418 -0.905673 30.5763 0.608568 26.2684 4.22905C25.8439 4.58651 25.4287 4.95426 25.0234 5.33197C24.7521 5.08081 24.476 4.83452 24.1952 4.59323C19.6803 0.722103 15.1549 -0.909445 12.4376 0.6097C9.83172 2.06642 9.0601 6.3915 10.1569 11.8038C10.266 12.3399 10.3892 12.8732 10.5264 13.4031C9.88582 13.5789 9.2677 13.766 8.67615 13.9652C3.38284 15.7474 0.00245667 18.5403 0.00245667 21.4374C0.00245667 24.4294 3.63145 27.4306 9.14467 29.2503C9.59163 29.3973 10.0423 29.5334 10.4963 29.6587C10.3489 30.2295 10.218 30.8042 10.1038 31.382C9.05815 36.7005 9.87468 40.9233 12.4735 42.3708C15.1576 43.8656 19.6627 42.3293 24.0493 38.6262C24.405 38.3252 24.7529 38.0156 25.0926 37.6978C25.5315 38.1067 25.9822 38.5038 26.444 38.8886C30.6933 42.4195 34.8898 43.8453 37.4861 42.3938C40.1677 40.8947 41.0393 36.3582 39.9077 30.8389C39.8186 30.4065 39.7186 29.9762 39.608 29.5485C39.9243 29.458 40.2349 29.3648 40.5376 29.2679C46.2691 27.4342 49.9983 24.4694 49.9983 21.4374C49.9983 18.5298 46.5088 15.718 41.109 13.9229ZM39.8659 27.3102C39.5925 27.3976 39.3121 27.4819 39.0262 27.5639C38.3934 25.6295 37.5396 23.5726 36.4945 21.4473C37.4917 19.3728 38.3128 17.3422 38.9277 15.4204C39.4392 15.5633 39.9355 15.714 40.4139 15.873C45.0405 17.4112 47.8625 19.6851 47.8625 21.4374C47.8625 23.3037 44.8148 25.7266 39.8659 27.3102ZM37.8126 31.2395C38.313 33.6799 38.3842 35.8865 38.0528 37.6116C37.7552 39.1617 37.1564 40.195 36.4158 40.6089C34.8404 41.4897 31.4709 40.3449 27.8371 37.3251C27.4075 36.9674 26.9883 36.5982 26.5799 36.218C27.9888 34.7302 29.3967 33.0006 30.7708 31.0795C33.1878 30.8725 35.4712 30.5337 37.5419 30.0715C37.6417 30.4587 37.7319 30.8481 37.8126 31.2395ZM17.0471 40.4567C15.5078 40.9816 14.2817 40.9967 13.5406 40.584C11.9636 39.7058 11.308 36.315 12.2022 31.7668C12.3085 31.2293 12.4302 30.6948 12.5672 30.1639C14.6151 30.6014 16.8819 30.916 19.3046 31.1058C20.688 32.9855 22.1366 34.7132 23.5964 36.2261C23.2862 36.516 22.9686 36.7985 22.6439 37.0733C20.7041 38.7107 18.7603 39.8725 17.0471 40.4567ZM9.83562 27.2987C7.39774 26.494 5.38443 25.4482 4.00447 24.307C2.76434 23.2816 2.13841 22.2634 2.13841 21.4374C2.13841 19.6793 4.85244 17.4368 9.37922 15.9128C9.92859 15.728 10.5035 15.5535 11.1002 15.3898C11.7259 17.355 12.5465 19.4098 13.5369 21.4875C12.5336 23.596 11.7013 25.6836 11.0695 27.672C10.6551 27.5573 10.2437 27.4329 9.83562 27.2987ZM12.253 11.4076C11.3134 6.77058 11.9374 3.27268 13.5078 2.39477C15.1803 1.4597 18.8788 2.79289 22.7771 6.13558C23.0313 6.35404 23.2814 6.57694 23.5273 6.80415C22.0746 8.31047 20.6394 10.0254 19.2682 11.894C16.9169 12.1045 14.6661 12.4424 12.5967 12.8953C12.4692 12.4023 12.3546 11.9063 12.253 11.4078V11.4076ZM33.819 16.5503C33.3302 15.7349 32.8233 14.9299 32.2986 14.1357C33.8938 14.3305 35.4222 14.589 36.8574 14.9051C36.4266 16.2389 35.8895 17.6332 35.2573 19.0627C34.7953 18.2161 34.3157 17.3784 33.819 16.5503ZM25.0244 8.27822C26.0095 9.3089 26.9961 10.4595 27.9665 11.708C25.998 11.6183 24.0261 11.6179 22.0575 11.7069C23.0289 10.4699 24.0239 9.32078 25.0244 8.27822ZM16.1734 16.5644C15.6829 17.3859 15.2123 18.2183 14.762 19.061C14.1402 17.6366 13.608 16.2359 13.1734 14.8832C14.5999 14.5751 16.121 14.3231 17.7061 14.1319C17.1755 14.931 16.6645 15.742 16.1734 16.5642V16.5644ZM17.7516 28.8896C16.114 28.713 14.57 28.4741 13.1439 28.1742C13.5853 26.7975 14.1292 25.3669 14.7645 23.9119C15.2166 24.7553 15.6891 25.5882 16.1818 26.4101C16.6884 27.255 17.2129 28.0826 17.7516 28.8896ZM25.0834 34.7417C24.071 33.6871 23.0613 32.5202 22.0752 31.2653C23.0326 31.3015 24.0085 31.32 25.0004 31.32C26.0194 31.32 27.0268 31.2979 28.0183 31.2553C27.0447 32.5329 26.0618 33.7014 25.0834 34.7417ZM35.2775 23.8376C35.9458 25.3087 36.509 26.7316 36.9562 28.0848C35.5067 28.4043 33.9416 28.6615 32.2925 28.8526C32.821 28.0436 33.3327 27.2246 33.8274 26.3959C34.3303 25.5537 34.8138 24.7007 35.2775 23.8376ZM31.9773 25.3654C31.22 26.6359 30.4201 27.8822 29.5789 29.1025C28.0551 29.2067 26.528 29.2585 25.0004 29.2577C23.4445 29.2577 21.9311 29.2109 20.4738 29.1196C19.6106 27.9022 18.7955 26.6537 18.0301 25.3768H18.0303C17.2684 24.1066 16.5569 22.8089 15.897 21.4866C16.5552 20.1639 17.2646 18.8657 18.0238 17.5945L18.0236 17.5947C18.7825 16.3232 19.5912 15.08 20.4478 13.8678C21.9346 13.7592 23.4593 13.7026 25.0002 13.7026H25.0004C26.5483 13.7026 28.0749 13.7598 29.5613 13.8692C30.4093 15.0795 31.2128 16.3185 31.9703 17.5836C32.732 18.8519 33.4509 20.1439 34.1256 21.4573C33.4578 22.7843 32.7412 24.0878 31.9773 25.3654ZM36.3832 2.33328C38.0573 3.2657 38.7084 7.02575 37.6566 11.9566C37.5894 12.2712 37.514 12.5916 37.432 12.9166C35.3575 12.4541 33.1052 12.1103 30.747 11.8966C29.3733 10.0075 27.9497 8.28991 26.5208 6.80302C26.8953 6.4544 27.2787 6.11482 27.6707 5.7846C31.3618 2.68275 34.8115 1.45801 36.3832 2.33328ZM25.0004 17.126C27.466 17.126 29.4649 19.0563 29.4649 21.4374C29.4649 23.8184 27.466 25.7487 25.0004 25.7487C22.5348 25.7487 20.5359 23.8184 20.5359 21.4374C20.5359 19.0563 22.5348 17.126 25.0004 17.126Z" fill="#00D8FF"/>
</g>
<defs>
<clipPath id="clip0_226_4571">
<rect width="50" height="43" fill="white"/>
</clipPath>
</defs>
</svg>
