<svg width="45" height="43" viewBox="0 0 45 43" fill="none" xmlns="http://www.w3.org/2000/svg">
<path d="M40.7953 6.75906L32.6869 3.02881C32.229 2.81783 31.7137 2.74821 31.2125 2.82959C30.7114 2.91098 30.2491 3.13933 29.8898 3.48299L3.34687 26.6062C3.02483 26.8855 2.83205 27.2755 2.81095 27.6906C2.78986 28.1056 2.94216 28.5117 3.23437 28.8194C3.26953 28.8557 3.30468 28.8906 3.34265 28.9229L5.50968 30.8041C5.79285 31.0504 6.15734 31.1941 6.53985 31.2103C6.92236 31.2265 7.29873 31.1142 7.60359 30.8928L39.5747 7.72656C39.8162 7.55145 40.104 7.44424 40.4058 7.41698C40.7076 7.38972 41.0114 7.4435 41.2829 7.57226C41.5545 7.70102 41.783 7.89965 41.9428 8.1458C42.1026 8.39194 42.1874 8.67583 42.1875 8.96549L42.1875 8.87546C42.1875 8.43324 42.0568 8 41.8105 7.62559C41.5642 7.25119 41.2123 6.95082 40.7953 6.75906Z" fill="#0065A9"/>
<path d="M40.7953 36.2409L32.6869 39.9725C32.2288 40.1829 31.7137 40.2522 31.2127 40.1709C30.7117 40.0895 30.2494 39.8615 29.8898 39.5184L3.34687 16.3938C3.02483 16.1145 2.83205 15.7245 2.81095 15.3094C2.78986 14.8944 2.94216 14.4883 3.23437 14.1806C3.26953 14.1443 3.30468 14.1094 3.34265 14.0771L5.50968 12.1959C5.79314 11.9486 6.15846 11.8042 6.54192 11.788C6.92537 11.7718 7.30261 11.8848 7.60781 12.1072L39.5747 35.2735C39.8162 35.4486 40.104 35.5558 40.4058 35.583C40.7076 35.6103 41.0114 35.5565 41.2829 35.4278C41.5545 35.299 41.783 35.1004 41.9428 34.8542C42.1026 34.6081 42.1874 34.3242 42.1875 34.0345L42.1875 34.1313C42.186 34.5723 42.0546 35.0041 41.8084 35.3771C41.5622 35.7502 41.2112 36.0496 40.7953 36.2409Z" fill="#007ACC"/>
<path d="M32.6869 39.9725C32.2288 40.1829 31.7137 40.2522 31.2127 40.1708C30.7117 40.0895 30.2494 39.8615 29.8898 39.5183C30.0918 39.7088 30.3481 39.838 30.6266 39.8899C30.905 39.9418 31.1934 39.914 31.4554 39.8099C31.7174 39.7059 31.9415 39.5303 32.0995 39.3051C32.2575 39.08 32.3425 38.8152 32.3437 38.5441L32.3437 4.45585C32.344 4.18345 32.2596 3.91712 32.1013 3.69059C31.943 3.46406 31.7179 3.28752 31.4545 3.18333C31.1911 3.07915 30.9013 3.05201 30.6218 3.10535C30.3422 3.15869 30.0855 3.29012 29.8842 3.48297C30.2435 3.13943 30.7057 2.91107 31.2068 2.82946C31.7079 2.74785 32.2231 2.81704 32.6812 3.02744L40.7883 6.75232C41.2066 6.94313 41.56 7.24308 41.8075 7.61756C42.0551 7.99204 42.1868 8.42578 42.1875 8.86872L42.1875 34.1312C42.1876 34.5738 42.0569 35.0074 41.8103 35.3821C41.5637 35.7568 41.2114 36.0573 40.7939 36.249L32.6869 39.9725Z" fill="#1F9CF0"/>
</svg>
