<svg width="1433" height="2940" viewBox="0 0 1433 2940" fill="none" xmlns="http://www.w3.org/2000/svg">
<g opacity="0.6" clip-path="url(#clip0_277_651)">
<rect width="1427.26" height="2936.27" transform="matrix(-0.999998 0.00190082 0.00190082 0.999998 1427.36 0.185181)" fill="white"/>
<g opacity="0.25">
<path d="M1252.08 761.207L714.503 1129.51L1170.08 1559.52L1164.62 548.532L107.746 550.541L109.291 1362.87L616.882 652.428L41.8708 653.521L44.2817 1921.89L972.199 1650.8L574.399 1251.28L576.908 2571.64L45.1023 2353.58L1348.87 2351.1L1146.28 1773.94L807.851 2479.57L1432.07 2478.38" stroke="#EEC0C0" stroke-width="3" stroke-miterlimit="10"/>
<path d="M535.76 2291.46L47.6465 2292.38" stroke="#EEC0C0" stroke-width="3" stroke-miterlimit="10"/>
<path opacity="0.4" d="M579.015 1972.48C562.606 1972.52 549.279 1958.96 549.247 1942.21C549.215 1925.46 562.491 1911.86 578.9 1911.83C595.309 1911.79 608.636 1925.35 608.668 1942.1C608.7 1958.85 595.424 1972.45 579.015 1972.48Z" fill="#EEC0C0"/>
<path opacity="0.4" d="M533.496 2037.83C533.542 2062.34 553.423 2082.15 577.92 2082.1C602.418 2082.05 622.222 2062.17 622.176 2037.66C622.129 2013.16 602.249 1993.35 577.751 1993.4C553.254 1993.45 533.449 2013.33 533.496 2037.83Z" fill="#EEC0C0"/>
<path opacity="0.4" d="M512.947 2169.99C513.014 2205.24 541.635 2233.76 576.878 2233.7C612.122 2233.63 640.634 2205 640.567 2169.75C640.5 2134.5 611.879 2105.98 576.636 2106.05C541.392 2106.11 512.88 2134.74 512.947 2169.99Z" fill="#EEC0C0"/>
<path opacity="0.4" d="M1233.84 2454.34C1220.14 2454.55 1209.23 2465.58 1209.41 2479.02C1209.62 2492.43 1220.87 2503.15 1234.57 2502.94C1248.27 2502.73 1259.18 2491.69 1258.99 2478.26C1258.78 2464.85 1247.54 2454.12 1233.84 2454.34Z" fill="#EEC0C0"/>
<path opacity="0.4" d="M1155.51 2442.51C1135.51 2442.82 1119.52 2459.29 1119.83 2479.32C1120.13 2499.33 1136.6 2515.31 1156.63 2515.01C1176.63 2514.7 1192.61 2498.23 1192.31 2478.2C1192 2458.19 1175.54 2442.21 1155.51 2442.51Z" fill="#EEC0C0"/>
<path opacity="0.4" d="M1047.3 2427.15C1018.5 2427.61 995.506 2451.3 995.933 2480.14C996.387 2508.95 1020.08 2531.95 1048.91 2531.52C1077.71 2531.09 1100.7 2507.37 1100.28 2478.56C1099.85 2449.75 1076.13 2426.75 1047.33 2427.18L1047.3 2427.15Z" fill="#EEC0C0"/>
<path d="M1073.04 1587.92L1082.24 1597.09L1078.9 1600.44L1069.7 1591.28L1073.04 1587.92Z" fill="#EEC0C0"/>
<path d="M1059.34 1574.25L1068.54 1583.41L1065.2 1586.77L1056 1577.6L1059.34 1574.25Z" fill="#EEC0C0"/>
<path d="M1045.65 1560.64L1054.84 1569.8L1051.5 1573.16L1042.3 1564L1045.65 1560.64Z" fill="#EEC0C0"/>
<path d="M1031.98 1546.97L1041.17 1556.13L1037.83 1559.49L1028.63 1550.32L1031.98 1546.97Z" fill="#EEC0C0"/>
<path d="M1018.3 1533.34L1027.49 1542.5L1024.15 1545.86L1014.95 1536.7L1018.3 1533.34Z" fill="#EEC0C0"/>
<path d="M1004.58 1519.71L1013.78 1528.88L1010.43 1532.23L1001.24 1523.07L1004.58 1519.71Z" fill="#EEC0C0"/>
<path d="M990.909 1506.07L1000.1 1515.23L996.763 1518.58L987.567 1509.42L990.909 1506.07Z" fill="#EEC0C0"/>
<path d="M977.211 1492.43L986.407 1501.59L983.065 1504.95L973.869 1495.79L977.211 1492.43Z" fill="#EEC0C0"/>
<path d="M963.54 1478.81L972.736 1487.97L969.394 1491.33L960.198 1482.17L963.54 1478.81Z" fill="#EEC0C0"/>
<path d="M949.842 1465.18L959.038 1474.34L955.696 1477.69L946.501 1468.53L949.842 1465.18Z" fill="#EEC0C0"/>
<path d="M936.171 1451.53L945.367 1460.69L942.025 1464.05L932.829 1454.88L936.171 1451.53Z" fill="#EEC0C0"/>
<path d="M922.492 1437.9L931.688 1447.06L928.347 1450.42L919.151 1441.26L922.492 1437.9Z" fill="#EEC0C0"/>
<path d="M908.775 1424.25L917.971 1433.41L914.63 1436.76L905.434 1427.6L908.775 1424.25Z" fill="#EEC0C0"/>
<path d="M895.104 1410.6L904.3 1419.76L900.959 1423.12L891.763 1413.96L895.104 1410.6Z" fill="#EEC0C0"/>
<path d="M881.407 1396.99L890.603 1406.15L887.261 1409.51L878.065 1400.35L881.407 1396.99Z" fill="#EEC0C0"/>
<path d="M867.736 1383.35L876.931 1392.51L873.59 1395.86L864.394 1386.7L867.736 1383.35Z" fill="#EEC0C0"/>
<path d="M854.038 1369.74L863.234 1378.9L859.892 1382.25L850.696 1373.09L854.038 1369.74Z" fill="#EEC0C0"/>
<path d="M840.34 1356.06L849.536 1365.23L846.194 1368.58L836.999 1359.42L840.34 1356.06Z" fill="#EEC0C0"/>
<path d="M826.688 1342.41L835.884 1351.57L832.542 1354.93L823.346 1345.76L826.688 1342.41Z" fill="#EEC0C0"/>
<path d="M812.971 1328.78L822.167 1337.94L818.826 1341.3L809.63 1332.14L812.971 1328.78Z" fill="#EEC0C0"/>
<path d="M799.3 1315.13L808.496 1324.3L805.155 1327.65L795.959 1318.49L799.3 1315.13Z" fill="#EEC0C0"/>
<path d="M785.602 1301.53L794.798 1310.69L791.457 1314.04L782.261 1304.88L785.602 1301.53Z" fill="#EEC0C0"/>
<path d="M771.931 1287.85L781.127 1297.02L777.785 1300.37L768.59 1291.21L771.931 1287.85Z" fill="#EEC0C0"/>
<path d="M758.252 1274.23L767.448 1283.39L764.107 1286.74L754.911 1277.58L758.252 1274.23Z" fill="#EEC0C0"/>
<path d="M744.536 1260.6L753.731 1269.76L750.39 1273.12L741.194 1263.95L744.536 1260.6Z" fill="#EEC0C0"/>
<path d="M730.864 1246.95L740.06 1256.11L736.719 1259.47L727.523 1250.31L730.864 1246.95Z" fill="#EEC0C0"/>
<path d="M717.167 1233.34L726.363 1242.51L723.021 1245.86L713.825 1236.7L717.167 1233.34Z" fill="#EEC0C0"/>
<path d="M703.496 1219.7L712.691 1228.86L709.35 1232.21L700.154 1223.05L703.496 1219.7Z" fill="#EEC0C0"/>
<path d="M689.817 1206.04L699.013 1215.2L695.671 1218.56L686.475 1209.4L689.817 1206.04Z" fill="#EEC0C0"/>
<path d="M676.127 1192.41L685.323 1201.58L681.981 1204.93L672.785 1195.77L676.127 1192.41Z" fill="#EEC0C0"/>
<path d="M662.448 1178.79L671.644 1187.95L668.302 1191.3L659.106 1182.14L662.448 1178.79Z" fill="#EEC0C0"/>
<path d="M648.731 1165.13L657.927 1174.29L654.586 1177.65L645.39 1168.49L648.731 1165.13Z" fill="#EEC0C0"/>
<path d="M635.06 1151.48L644.256 1160.65L640.915 1164L631.719 1154.84L635.06 1151.48Z" fill="#EEC0C0"/>
<path d="M621.363 1137.88L630.558 1147.04L627.217 1150.39L618.021 1141.23L621.363 1137.88Z" fill="#EEC0C0"/>
<path d="M607.691 1124.2L616.887 1133.37L613.546 1136.72L604.35 1127.56L607.691 1124.2Z" fill="#EEC0C0"/>
<path d="M1190.59 975.042L1192.01 1719.98" stroke="#EEC0C0" stroke-width="3" stroke-miterlimit="10"/>
<path d="M226.223 1826.59L246.602 1898.94L197.772 1873.65L226.223 1826.59Z" fill="#EEC0C0"/>
<path d="M277.787 1792.73L308.075 1900.15L235.548 1862.62L277.787 1792.73Z" fill="#EEC0C0"/>
<path d="M345.543 1755.06L384.882 1894.64L290.682 1845.86L345.543 1755.06Z" fill="#EEC0C0"/>
<path d="M465.61 621.828L463.553 476.834L542.022 548.226L465.61 621.828Z" fill="#EEC0C0"/>
<path d="M599.356 583.475L598.282 508.318L638.943 545.328L599.356 583.475Z" fill="#EEC0C0"/>
<path d="M540.796 602.901L539.201 491.296L599.605 546.254L540.796 602.901Z" fill="#EEC0C0"/>
<path d="M66.1925 1764.29C66.0117 1753.12 57.0042 1744.17 46.0459 1744.35C35.0875 1744.53 26.354 1753.73 26.5082 1764.9C26.6891 1776.07 35.6965 1785.02 46.6548 1784.84C57.6132 1784.66 66.3467 1775.47 66.1925 1764.29Z" fill="#EEC0C0"/>
<path d="M75.8594 1700.29C75.6155 1683.93 62.1584 1670.89 45.8005 1671.13C29.4427 1671.38 16.4082 1684.84 16.6521 1701.2C16.8959 1717.56 30.3532 1730.6 46.711 1730.35C63.0689 1730.11 76.1033 1716.65 75.8594 1700.29Z" fill="#EEC0C0"/>
<path d="M88.4057 1611.88C88.0417 1588.34 68.6687 1569.56 45.1559 1569.9C21.6166 1570.27 2.84813 1589.64 3.21207 1613.19C3.57601 1636.73 22.949 1655.51 46.4617 1655.14C70.001 1654.78 88.7696 1635.43 88.4323 1611.88L88.4057 1611.88Z" fill="#EEC0C0"/>
<path d="M662 668.803L665.889 671.505L658.619 681.971L654.731 679.269L662 668.803Z" fill="#EEC0C0"/>
<path d="M651.169 684.371L655.057 687.073L647.788 697.538L643.899 694.836L651.169 684.371Z" fill="#EEC0C0"/>
<path d="M640.338 699.965L644.226 702.667L636.956 713.132L633.068 710.43L640.338 699.965Z" fill="#EEC0C0"/>
<path d="M629.533 715.558L633.421 718.26L626.151 728.726L622.263 726.024L629.533 715.558Z" fill="#EEC0C0"/>
<path d="M618.68 731.137L622.568 733.839L615.298 744.305L611.41 741.603L618.68 731.137Z" fill="#EEC0C0"/>
<path d="M607.848 746.704L611.736 749.407L604.467 759.872L600.578 757.17L607.848 746.704Z" fill="#EEC0C0"/>
<path d="M597.043 762.298L600.932 765.001L593.662 775.466L589.774 772.764L597.043 762.298Z" fill="#EEC0C0"/>
<path d="M586.212 777.892L590.1 780.595L582.83 791.06L578.942 788.358L586.212 777.892Z" fill="#EEC0C0"/>
<path d="M575.365 793.508L579.254 796.21L571.984 806.676L568.096 803.974L575.365 793.508Z" fill="#EEC0C0"/>
<path d="M564.576 809.08L568.464 811.782L561.194 822.248L557.306 819.546L564.576 809.08Z" fill="#EEC0C0"/>
<path d="M553.707 824.654L557.595 827.357L550.326 837.822L546.437 835.12L553.707 824.654Z" fill="#EEC0C0"/>
<path d="M542.876 840.248L546.764 842.951L539.494 853.416L535.606 850.714L542.876 840.248Z" fill="#EEC0C0"/>
<path d="M532.071 855.842L535.959 858.544L528.69 869.01L524.801 866.308L532.071 855.842Z" fill="#EEC0C0"/>
<path d="M521.24 871.41L525.128 874.112L517.858 884.578L513.97 881.875L521.24 871.41Z" fill="#EEC0C0"/>
<path d="M510.408 887.03L514.297 889.733L507.027 900.198L503.139 897.496L510.408 887.03Z" fill="#EEC0C0"/>
<path d="M499.603 902.598L503.492 905.3L496.222 915.765L492.334 913.063L499.603 902.598Z" fill="#EEC0C0"/>
<path d="M488.75 918.176L492.639 920.879L485.369 931.344L481.481 928.642L488.75 918.176Z" fill="#EEC0C0"/>
<path d="M477.919 933.77L481.807 936.473L474.537 946.938L470.649 944.236L477.919 933.77Z" fill="#EEC0C0"/>
<path d="M467.114 949.364L471.002 952.066L463.733 962.532L459.844 959.83L467.114 949.364Z" fill="#EEC0C0"/>
<path d="M456.283 964.932L460.171 967.634L452.901 978.1L449.013 975.397L456.283 964.932Z" fill="#EEC0C0"/>
<path d="M445.451 980.526L449.34 983.228L442.07 993.693L438.182 990.991L445.451 980.526Z" fill="#EEC0C0"/>
<path d="M434.647 996.12L438.535 998.822L431.265 1009.29L427.377 1006.59L434.647 996.12Z" fill="#EEC0C0"/>
<path d="M423.793 1011.67L427.682 1014.37L420.412 1024.84L416.524 1022.14L423.793 1011.67Z" fill="#EEC0C0"/>
<path d="M412.962 1027.29L416.85 1029.99L409.581 1040.46L405.692 1037.76L412.962 1027.29Z" fill="#EEC0C0"/>
<path d="M402.157 1042.86L406.045 1045.56L398.776 1056.03L394.887 1053.33L402.157 1042.86Z" fill="#EEC0C0"/>
<path d="M391.326 1058.45L395.214 1061.16L387.944 1071.62L384.056 1068.92L391.326 1058.45Z" fill="#EEC0C0"/>
<path d="M380.494 1074.05L384.383 1076.75L377.113 1087.22L373.225 1084.51L380.494 1074.05Z" fill="#EEC0C0"/>
<path d="M369.69 1089.62L373.578 1092.32L366.308 1102.78L362.42 1100.08L369.69 1089.62Z" fill="#EEC0C0"/>
<path d="M358.836 1105.19L362.724 1107.9L355.455 1118.36L351.566 1115.66L358.836 1105.19Z" fill="#EEC0C0"/>
<path d="M348.005 1120.79L351.893 1123.49L344.623 1133.96L340.735 1131.25L348.005 1120.79Z" fill="#EEC0C0"/>
<path d="M337.2 1136.38L341.088 1139.08L333.818 1149.55L329.93 1146.85L337.2 1136.38Z" fill="#EEC0C0"/>
<path d="M326.369 1151.98L330.257 1154.68L322.987 1165.14L319.099 1162.44L326.369 1151.98Z" fill="#EEC0C0"/>
<path d="M315.537 1167.57L319.426 1170.27L312.156 1180.74L308.268 1178.04L315.537 1167.57Z" fill="#EEC0C0"/>
<path d="M304.732 1183.14L308.621 1185.84L301.351 1196.3L297.463 1193.6L304.732 1183.14Z" fill="#EEC0C0"/>
<path d="M293.901 1198.73L297.789 1201.43L290.52 1211.9L286.631 1209.2L293.901 1198.73Z" fill="#EEC0C0"/>
<path d="M283.048 1214.31L286.936 1217.01L279.666 1227.48L275.778 1224.78L283.048 1214.31Z" fill="#EEC0C0"/>
<path d="M272.243 1229.9L276.131 1232.61L268.861 1243.07L264.973 1240.37L272.243 1229.9Z" fill="#EEC0C0"/>
<path d="M261.412 1245.5L265.3 1248.2L258.03 1258.67L254.142 1255.96L261.412 1245.5Z" fill="#EEC0C0"/>
<path d="M250.565 1261.09L254.453 1263.79L247.183 1274.25L243.295 1271.55L250.565 1261.09Z" fill="#EEC0C0"/>
<path d="M239.734 1276.68L243.622 1279.38L236.352 1289.85L232.464 1287.15L239.734 1276.68Z" fill="#EEC0C0"/>
<path d="M228.907 1292.23L232.795 1294.94L225.525 1305.4L221.637 1302.7L228.907 1292.23Z" fill="#EEC0C0"/>
<path d="M218.075 1307.83L221.964 1310.53L214.694 1320.99L210.806 1318.29L218.075 1307.83Z" fill="#EEC0C0"/>
<path d="M207.244 1323.42L211.132 1326.12L203.863 1336.59L199.974 1333.89L207.244 1323.42Z" fill="#EEC0C0"/>
<path d="M196.439 1339.01L200.328 1341.72L193.058 1352.18L189.17 1349.48L196.439 1339.01Z" fill="#EEC0C0"/>
<path d="M185.608 1354.61L189.496 1357.31L182.226 1367.78L178.338 1365.07L185.608 1354.61Z" fill="#EEC0C0"/>
<path d="M174.777 1370.18L178.665 1372.88L171.395 1383.34L167.507 1380.64L174.777 1370.18Z" fill="#EEC0C0"/>
<path d="M163.972 1385.8L167.86 1388.5L160.59 1398.96L156.702 1396.26L163.972 1385.8Z" fill="#EEC0C0"/>
<path d="M153.118 1401.35L157.007 1404.05L149.737 1414.52L145.849 1411.81L153.118 1401.35Z" fill="#EEC0C0"/>
<path d="M142.287 1416.94L146.175 1419.64L138.906 1430.11L135.017 1427.41L142.287 1416.94Z" fill="#EEC0C0"/>
</g>
</g>
<defs>
<clipPath id="clip0_277_651">
<rect width="1427.26" height="2936.27" fill="white" transform="matrix(-0.999998 0.00190082 0.00190082 0.999998 1427.36 0.185181)"/>
</clipPath>
</defs>
</svg>
