<svg width="1433" height="2403" viewBox="0 0 1433 2403" fill="none" xmlns="http://www.w3.org/2000/svg">
<g opacity="0.6" clip-path="url(#clip0_277_651)">
<g opacity="0.25">
<path d="M1252.08 585.207L714.503 953.512L1170.08 1383.52L1164.62 372.532L107.746 374.541L109.291 1186.87L616.882 476.428L41.8708 477.521L44.2817 1745.89L972.199 1474.8L574.399 1075.28L576.908 2395.64L45.1023 2177.58L1348.87 2175.1L1146.28 1597.94L807.851 2303.57L1432.07 2302.38" stroke="#EEC0C0" stroke-width="3" stroke-miterlimit="10"/>
<path d="M535.76 2115.46L47.6465 2116.38" stroke="#EEC0C0" stroke-width="3" stroke-miterlimit="10"/>
<path opacity="0.4" d="M579.015 1796.48C562.606 1796.52 549.279 1782.96 549.247 1766.21C549.215 1749.46 562.491 1735.86 578.9 1735.83C595.309 1735.79 608.636 1749.35 608.668 1766.1C608.7 1782.85 595.424 1796.45 579.015 1796.48Z" fill="#EEC0C0"/>
<path opacity="0.4" d="M533.496 1861.83C533.542 1886.34 553.423 1906.15 577.92 1906.1C602.418 1906.05 622.222 1886.17 622.176 1861.66C622.129 1837.16 602.249 1817.35 577.751 1817.4C553.254 1817.45 533.449 1837.33 533.496 1861.83Z" fill="#EEC0C0"/>
<path opacity="0.4" d="M512.947 1993.99C513.014 2029.24 541.635 2057.76 576.878 2057.7C612.122 2057.63 640.634 2029 640.567 1993.75C640.5 1958.5 611.879 1929.98 576.636 1930.05C541.392 1930.11 512.88 1958.74 512.947 1993.99Z" fill="#EEC0C0"/>
<path opacity="0.4" d="M1233.84 2278.34C1220.14 2278.55 1209.23 2289.58 1209.41 2303.02C1209.62 2316.43 1220.87 2327.15 1234.57 2326.94C1248.27 2326.73 1259.18 2315.69 1258.99 2302.26C1258.78 2288.85 1247.54 2278.12 1233.84 2278.34Z" fill="#EEC0C0"/>
<path opacity="0.4" d="M1155.51 2266.51C1135.51 2266.82 1119.52 2283.29 1119.83 2303.32C1120.13 2323.33 1136.6 2339.31 1156.63 2339.01C1176.63 2338.7 1192.61 2322.23 1192.31 2302.2C1192 2282.19 1175.54 2266.21 1155.51 2266.51Z" fill="#EEC0C0"/>
<path opacity="0.4" d="M1047.3 2251.15C1018.5 2251.61 995.506 2275.3 995.933 2304.14C996.387 2332.95 1020.08 2355.95 1048.91 2355.52C1077.71 2355.09 1100.7 2331.37 1100.28 2302.56C1099.85 2273.75 1076.13 2250.75 1047.33 2251.18L1047.3 2251.15Z" fill="#EEC0C0"/>
<path d="M1073.04 1411.92L1082.24 1421.09L1078.9 1424.44L1069.7 1415.28L1073.04 1411.92Z" fill="#EEC0C0"/>
<path d="M1059.34 1398.25L1068.54 1407.41L1065.2 1410.77L1056 1401.6L1059.34 1398.25Z" fill="#EEC0C0"/>
<path d="M1045.65 1384.64L1054.84 1393.8L1051.5 1397.16L1042.3 1388L1045.65 1384.64Z" fill="#EEC0C0"/>
<path d="M1031.98 1370.97L1041.17 1380.13L1037.83 1383.49L1028.63 1374.32L1031.98 1370.97Z" fill="#EEC0C0"/>
<path d="M1018.3 1357.34L1027.49 1366.5L1024.15 1369.86L1014.95 1360.7L1018.3 1357.34Z" fill="#EEC0C0"/>
<path d="M1004.58 1343.71L1013.78 1352.88L1010.43 1356.23L1001.24 1347.07L1004.58 1343.71Z" fill="#EEC0C0"/>
<path d="M990.909 1330.07L1000.1 1339.23L996.763 1342.58L987.567 1333.42L990.909 1330.07Z" fill="#EEC0C0"/>
<path d="M977.211 1316.43L986.407 1325.59L983.065 1328.95L973.869 1319.79L977.211 1316.43Z" fill="#EEC0C0"/>
<path d="M963.54 1302.81L972.736 1311.97L969.394 1315.33L960.198 1306.17L963.54 1302.81Z" fill="#EEC0C0"/>
<path d="M949.842 1289.18L959.038 1298.34L955.696 1301.69L946.501 1292.53L949.842 1289.18Z" fill="#EEC0C0"/>
<path d="M936.171 1275.53L945.367 1284.69L942.025 1288.05L932.829 1278.88L936.171 1275.53Z" fill="#EEC0C0"/>
<path d="M922.492 1261.9L931.688 1271.06L928.347 1274.42L919.151 1265.26L922.492 1261.9Z" fill="#EEC0C0"/>
<path d="M908.775 1248.25L917.971 1257.41L914.63 1260.76L905.434 1251.6L908.775 1248.25Z" fill="#EEC0C0"/>
<path d="M895.104 1234.6L904.3 1243.76L900.959 1247.12L891.763 1237.96L895.104 1234.6Z" fill="#EEC0C0"/>
<path d="M881.407 1220.99L890.603 1230.15L887.261 1233.51L878.065 1224.35L881.407 1220.99Z" fill="#EEC0C0"/>
<path d="M867.736 1207.35L876.931 1216.51L873.59 1219.86L864.394 1210.7L867.736 1207.35Z" fill="#EEC0C0"/>
<path d="M854.038 1193.74L863.234 1202.9L859.892 1206.25L850.696 1197.09L854.038 1193.74Z" fill="#EEC0C0"/>
<path d="M840.34 1180.06L849.536 1189.23L846.194 1192.58L836.999 1183.42L840.34 1180.06Z" fill="#EEC0C0"/>
<path d="M826.688 1166.41L835.884 1175.57L832.542 1178.93L823.346 1169.76L826.688 1166.41Z" fill="#EEC0C0"/>
<path d="M812.971 1152.78L822.167 1161.94L818.826 1165.3L809.63 1156.14L812.971 1152.78Z" fill="#EEC0C0"/>
<path d="M799.3 1139.13L808.496 1148.3L805.155 1151.65L795.959 1142.49L799.3 1139.13Z" fill="#EEC0C0"/>
<path d="M785.602 1125.53L794.798 1134.69L791.457 1138.04L782.261 1128.88L785.602 1125.53Z" fill="#EEC0C0"/>
<path d="M771.931 1111.85L781.127 1121.02L777.785 1124.37L768.59 1115.21L771.931 1111.85Z" fill="#EEC0C0"/>
<path d="M758.252 1098.23L767.448 1107.39L764.107 1110.74L754.911 1101.58L758.252 1098.23Z" fill="#EEC0C0"/>
<path d="M744.536 1084.6L753.731 1093.76L750.39 1097.12L741.194 1087.95L744.536 1084.6Z" fill="#EEC0C0"/>
<path d="M730.864 1070.95L740.06 1080.11L736.719 1083.47L727.523 1074.31L730.864 1070.95Z" fill="#EEC0C0"/>
<path d="M717.167 1057.34L726.363 1066.51L723.021 1069.86L713.825 1060.7L717.167 1057.34Z" fill="#EEC0C0"/>
<path d="M703.496 1043.7L712.691 1052.86L709.35 1056.21L700.154 1047.05L703.496 1043.7Z" fill="#EEC0C0"/>
<path d="M689.817 1030.04L699.013 1039.2L695.671 1042.56L686.475 1033.4L689.817 1030.04Z" fill="#EEC0C0"/>
<path d="M676.127 1016.41L685.323 1025.58L681.981 1028.93L672.785 1019.77L676.127 1016.41Z" fill="#EEC0C0"/>
<path d="M662.448 1002.79L671.644 1011.95L668.302 1015.3L659.106 1006.14L662.448 1002.79Z" fill="#EEC0C0"/>
<path d="M648.731 989.132L657.927 998.295L654.586 1001.65L645.39 992.487L648.731 989.132Z" fill="#EEC0C0"/>
<path d="M635.06 975.485L644.256 984.648L640.915 988.003L631.719 978.84L635.06 975.485Z" fill="#EEC0C0"/>
<path d="M621.363 961.876L630.558 971.039L627.217 974.394L618.021 965.231L621.363 961.876Z" fill="#EEC0C0"/>
<path d="M607.691 948.203L616.887 957.366L613.546 960.721L604.35 951.558L607.691 948.203Z" fill="#EEC0C0"/>
<path d="M1190.59 799.042L1192.01 1543.98" stroke="#EEC0C0" stroke-width="3" stroke-miterlimit="10"/>
<path d="M226.223 1650.59L246.602 1722.94L197.772 1697.65L226.223 1650.59Z" fill="#EEC0C0"/>
<path d="M277.787 1616.73L308.075 1724.15L235.548 1686.62L277.787 1616.73Z" fill="#EEC0C0"/>
<path d="M345.543 1579.06L384.882 1718.64L290.682 1669.86L345.543 1579.06Z" fill="#EEC0C0"/>
<path d="M465.61 445.828L463.553 300.834L542.022 372.226L465.61 445.828Z" fill="#EEC0C0"/>
<path d="M599.356 407.475L598.282 332.318L638.943 369.328L599.356 407.475Z" fill="#EEC0C0"/>
<path d="M540.796 426.901L539.201 315.296L599.605 370.254L540.796 426.901Z" fill="#EEC0C0"/>
<path d="M66.1925 1588.29C66.0117 1577.12 57.0042 1568.17 46.0459 1568.35C35.0875 1568.53 26.354 1577.73 26.5082 1588.9C26.6891 1600.07 35.6965 1609.02 46.6548 1608.84C57.6132 1608.66 66.3467 1599.47 66.1925 1588.29Z" fill="#EEC0C0"/>
<path d="M75.8594 1524.29C75.6155 1507.93 62.1584 1494.89 45.8005 1495.13C29.4427 1495.38 16.4082 1508.84 16.6521 1525.2C16.8959 1541.56 30.3532 1554.6 46.711 1554.35C63.0689 1554.11 76.1033 1540.65 75.8594 1524.29Z" fill="#EEC0C0"/>
<path d="M88.4057 1435.88C88.0417 1412.34 68.6687 1393.56 45.1559 1393.9C21.6166 1394.27 2.84813 1413.64 3.21207 1437.19C3.57601 1460.73 22.949 1479.51 46.4617 1479.14C70.001 1478.78 88.7696 1459.43 88.4323 1435.88L88.4057 1435.88Z" fill="#EEC0C0"/>
<path d="M662 492.803L665.889 495.505L658.619 505.971L654.731 503.269L662 492.803Z" fill="#EEC0C0"/>
<path d="M651.169 508.371L655.057 511.073L647.788 521.538L643.899 518.836L651.169 508.371Z" fill="#EEC0C0"/>
<path d="M640.338 523.965L644.226 526.667L636.956 537.132L633.068 534.43L640.338 523.965Z" fill="#EEC0C0"/>
<path d="M629.533 539.558L633.421 542.26L626.151 552.726L622.263 550.024L629.533 539.558Z" fill="#EEC0C0"/>
<path d="M618.68 555.137L622.568 557.839L615.298 568.305L611.41 565.603L618.68 555.137Z" fill="#EEC0C0"/>
<path d="M607.848 570.704L611.736 573.407L604.467 583.872L600.578 581.17L607.848 570.704Z" fill="#EEC0C0"/>
<path d="M597.043 586.298L600.932 589.001L593.662 599.466L589.774 596.764L597.043 586.298Z" fill="#EEC0C0"/>
<path d="M586.212 601.892L590.1 604.595L582.83 615.06L578.942 612.358L586.212 601.892Z" fill="#EEC0C0"/>
<path d="M575.365 617.508L579.254 620.21L571.984 630.676L568.096 627.974L575.365 617.508Z" fill="#EEC0C0"/>
<path d="M564.576 633.08L568.464 635.782L561.194 646.248L557.306 643.546L564.576 633.08Z" fill="#EEC0C0"/>
<path d="M553.707 648.654L557.595 651.357L550.326 661.822L546.437 659.12L553.707 648.654Z" fill="#EEC0C0"/>
<path d="M542.876 664.248L546.764 666.951L539.494 677.416L535.606 674.714L542.876 664.248Z" fill="#EEC0C0"/>
<path d="M532.071 679.842L535.959 682.544L528.69 693.01L524.801 690.308L532.071 679.842Z" fill="#EEC0C0"/>
<path d="M521.24 695.41L525.128 698.112L517.858 708.578L513.97 705.875L521.24 695.41Z" fill="#EEC0C0"/>
<path d="M510.408 711.03L514.297 713.733L507.027 724.198L503.139 721.496L510.408 711.03Z" fill="#EEC0C0"/>
<path d="M499.603 726.598L503.492 729.3L496.222 739.765L492.334 737.063L499.603 726.598Z" fill="#EEC0C0"/>
<path d="M488.75 742.176L492.639 744.879L485.369 755.344L481.481 752.642L488.75 742.176Z" fill="#EEC0C0"/>
<path d="M477.919 757.77L481.807 760.473L474.537 770.938L470.649 768.236L477.919 757.77Z" fill="#EEC0C0"/>
<path d="M467.114 773.364L471.002 776.066L463.733 786.532L459.844 783.83L467.114 773.364Z" fill="#EEC0C0"/>
<path d="M456.283 788.932L460.171 791.634L452.901 802.1L449.013 799.397L456.283 788.932Z" fill="#EEC0C0"/>
<path d="M445.451 804.526L449.34 807.228L442.07 817.693L438.182 814.991L445.451 804.526Z" fill="#EEC0C0"/>
<path d="M434.647 820.12L438.535 822.822L431.265 833.288L427.377 830.585L434.647 820.12Z" fill="#EEC0C0"/>
<path d="M423.793 835.672L427.682 838.374L420.412 848.84L416.524 846.138L423.793 835.672Z" fill="#EEC0C0"/>
<path d="M412.962 851.292L416.85 853.995L409.581 864.46L405.692 861.758L412.962 851.292Z" fill="#EEC0C0"/>
<path d="M402.157 866.86L406.045 869.562L398.776 880.028L394.887 877.325L402.157 866.86Z" fill="#EEC0C0"/>
<path d="M391.326 882.454L395.214 885.156L387.944 895.622L384.056 892.919L391.326 882.454Z" fill="#EEC0C0"/>
<path d="M380.494 898.048L384.383 900.75L377.113 911.216L373.225 908.513L380.494 898.048Z" fill="#EEC0C0"/>
<path d="M369.69 913.615L373.578 916.317L366.308 926.783L362.42 924.081L369.69 913.615Z" fill="#EEC0C0"/>
<path d="M358.836 929.194L362.724 931.896L355.455 942.362L351.566 939.66L358.836 929.194Z" fill="#EEC0C0"/>
<path d="M348.005 944.788L351.893 947.49L344.623 957.956L340.735 955.254L348.005 944.788Z" fill="#EEC0C0"/>
<path d="M337.2 960.382L341.088 963.084L333.818 973.55L329.93 970.848L337.2 960.382Z" fill="#EEC0C0"/>
<path d="M326.369 975.976L330.257 978.678L322.987 989.144L319.099 986.442L326.369 975.976Z" fill="#EEC0C0"/>
<path d="M315.537 991.57L319.426 994.272L312.156 1004.74L308.268 1002.04L315.537 991.57Z" fill="#EEC0C0"/>
<path d="M304.732 1007.14L308.621 1009.84L301.351 1020.3L297.463 1017.6L304.732 1007.14Z" fill="#EEC0C0"/>
<path d="M293.901 1022.73L297.789 1025.43L290.52 1035.9L286.631 1033.2L293.901 1022.73Z" fill="#EEC0C0"/>
<path d="M283.048 1038.31L286.936 1041.01L279.666 1051.48L275.778 1048.78L283.048 1038.31Z" fill="#EEC0C0"/>
<path d="M272.243 1053.9L276.131 1056.61L268.861 1067.07L264.973 1064.37L272.243 1053.9Z" fill="#EEC0C0"/>
<path d="M261.412 1069.5L265.3 1072.2L258.03 1082.67L254.142 1079.96L261.412 1069.5Z" fill="#EEC0C0"/>
<path d="M250.565 1085.09L254.453 1087.79L247.183 1098.25L243.295 1095.55L250.565 1085.09Z" fill="#EEC0C0"/>
<path d="M239.734 1100.68L243.622 1103.38L236.352 1113.85L232.464 1111.15L239.734 1100.68Z" fill="#EEC0C0"/>
<path d="M228.907 1116.23L232.795 1118.94L225.525 1129.4L221.637 1126.7L228.907 1116.23Z" fill="#EEC0C0"/>
<path d="M218.075 1131.83L221.964 1134.53L214.694 1144.99L210.806 1142.29L218.075 1131.83Z" fill="#EEC0C0"/>
<path d="M207.244 1147.42L211.132 1150.12L203.863 1160.59L199.974 1157.89L207.244 1147.42Z" fill="#EEC0C0"/>
<path d="M196.439 1163.01L200.328 1165.72L193.058 1176.18L189.17 1173.48L196.439 1163.01Z" fill="#EEC0C0"/>
<path d="M185.608 1178.61L189.496 1181.31L182.226 1191.78L178.338 1189.07L185.608 1178.61Z" fill="#EEC0C0"/>
<path d="M174.777 1194.18L178.665 1196.88L171.395 1207.34L167.507 1204.64L174.777 1194.18Z" fill="#EEC0C0"/>
<path d="M163.972 1209.8L167.86 1212.5L160.59 1222.96L156.702 1220.26L163.972 1209.8Z" fill="#EEC0C0"/>
<path d="M153.118 1225.35L157.007 1228.05L149.737 1238.52L145.849 1235.81L153.118 1225.35Z" fill="#EEC0C0"/>
<path d="M142.287 1240.94L146.175 1243.64L138.906 1254.11L135.017 1251.41L142.287 1240.94Z" fill="#EEC0C0"/>
</g>
</g>
<defs>
<clipPath id="clip0_277_651">
<rect width="1427.26" height="2399.81" fill="white" transform="matrix(-0.999998 0.00190082 0.00190082 0.999998 1427.69 0.168701)"/>
</clipPath>
</defs>
</svg>
